<?xml version="1.0" encoding="UTF-8" standalone="no"?>
<!-- Created with Inkscape (http://www.inkscape.org/) -->

<svg
   xmlns:dc="http://purl.org/dc/elements/1.1/"
   xmlns:cc="http://creativecommons.org/ns#"
   xmlns:rdf="http://www.w3.org/1999/02/22-rdf-syntax-ns#"
   xmlns:svg="http://www.w3.org/2000/svg"
   xmlns="http://www.w3.org/2000/svg"
   xmlns:sodipodi="http://sodipodi.sourceforge.net/DTD/sodipodi-0.dtd"
   xmlns:inkscape="http://www.inkscape.org/namespaces/inkscape"
   width="2208"
   height="2208"
   viewBox="0 0 2208 2207.9999"
   id="svg2"
   version="1.1"
   inkscape:version="0.91 r13725"
   sodipodi:docname="Splash.svg"
   inkscape:export-filename="/home/tux/rect4154.png"
   inkscape:export-xdpi="229.67999"
   inkscape:export-ydpi="229.67999">
  <defs
     id="defs4" />
  <sodipodi:namedview
     id="base"
     pagecolor="#ffffff"
     bordercolor="#666666"
     borderopacity="1.0"
     inkscape:pageopacity="0.0"
     inkscape:pageshadow="2"
     inkscape:zoom="1.1384864"
     inkscape:cx="1079.421"
     inkscape:cy="1080.2155"
     inkscape:document-units="px"
     inkscape:current-layer="layer1"
     showgrid="false"
     inkscape:snap-global="false"
     fit-margin-top="0"
     fit-margin-left="0"
     fit-margin-right="0"
     fit-margin-bottom="0"
     inkscape:window-width="1280"
     inkscape:window-height="693"
     inkscape:window-x="44"
     inkscape:window-y="39"
     inkscape:window-maximized="0"
     inkscape:snap-page="true"
     inkscape:object-paths="true"
     inkscape:object-nodes="true"
     units="px" />
  <metadata
     id="metadata7">
    <rdf:RDF>
      <cc:Work
         rdf:about="">
        <dc:format>image/svg+xml</dc:format>
        <dc:type
           rdf:resource="http://purl.org/dc/dcmitype/StillImage" />
        <dc:title></dc:title>
      </cc:Work>
    </rdf:RDF>
  </metadata>
  <g
     inkscape:label="Calque 1"
     inkscape:groupmode="layer"
     id="layer1"
     transform="translate(-141.29172,1690.4239)">
    <g
       id="g4220"
       transform="matrix(0.75008945,0,0,0.75008945,988.82059,-824.16269)">
      <rect
         y="116.31805"
         x="323.15289"
         height="401.25842"
         width="255.39253"
         id="rect4154"
         style="color:#000000;display:inline;overflow:visible;visibility:visible;opacity:1;fill:#b1e236;fill-opacity:1;fill-rule:nonzero;stroke:none;stroke-width:1.48199999;stroke-miterlimit:4;stroke-dasharray:none;stroke-dashoffset:0;stroke-opacity:1;marker:none;enable-background:accumulate" />
      <g
         transform="translate(-5.542031,-10.560156)"
         id="text4136"
         style="font-style:normal;font-variant:normal;font-weight:normal;font-stretch:normal;font-size:718.21337891px;line-height:125%;font-family:'Angsana New';-inkscape-font-specification:'Angsana New';letter-spacing:0px;word-spacing:0px;fill:#ffffff;fill-opacity:1;stroke:#b1e236;stroke-width:1.5;stroke-linecap:butt;stroke-linejoin:miter;stroke-miterlimit:4;stroke-dasharray:none;stroke-opacity:1">
        <path
           sodipodi:nodetypes="ccscscsccccssscscccccc"
           inkscape:connector-curvature="0"
           style="fill:#ffffff;fill-opacity:1;stroke:#b1e236;stroke-width:1.5;stroke-miterlimit:4;stroke-dasharray:none;stroke-opacity:1"
           id="path4152"
           d="m 478.57294,262.20242 -9.35198,0 c -3.49141,-36.00034 -23.87952,-52.7849 -61.16191,-52.53977 l -47.32098,0 0,225.84548 c 0,20.57162 2.99263,36.67049 8.97789,41.69651 6.10995,4.90914 14.96315,4.06366 26.5596,4.06366 l 11.78349,0 0,8.59099 -142.15,0 0,-8.59099 11.97053,0 c 10.22482,0 18.70394,0.84548 25.43736,-4.06366 6.73343,-4.90914 10.10014,-21.00801 10.10014,-41.69651 l 0,-225.84548 -40.83575,-1.24453 c -21.06334,-0.64193 -36.34922,3.05959 -47.07281,10.4233 -10.5989,7.24682 -16.7712,21.97119 -18.5169,43.361 l -9.35198,0 3.92783,-86.17724 273.26468,0 z" />
      </g>
      <rect
         y="116.31805"
         x="141.29172"
         height="401.258"
         width="401.25803"
         id="rect4216"
         style="color:#000000;display:inline;overflow:visible;visibility:visible;opacity:1;fill:none;fill-opacity:1;fill-rule:nonzero;stroke:none;stroke-width:1.48199999;stroke-miterlimit:4;stroke-dasharray:none;stroke-dashoffset:0;stroke-opacity:1;marker:none;enable-background:accumulate" />
    </g>
    <text
       xml:space="preserve"
       style="font-style:normal;font-variant:normal;font-weight:normal;font-stretch:normal;font-size:30.81153107px;line-height:125%;font-family:Archer;-inkscape-font-specification:Archer;letter-spacing:0px;word-spacing:0px;fill:#ffffff;fill-opacity:1;stroke:none;stroke-width:1px;stroke-linecap:butt;stroke-linejoin:miter;stroke-opacity:1"
       x="1259.421"
       y="-573.63617"
       id="text4226"
       sodipodi:linespacing="125%"><tspan
         sodipodi:role="line"
         id="tspan4228"
         x="1259.421"
         y="-573.63617"
         style="font-style:normal;font-variant:normal;font-weight:normal;font-stretch:normal;font-family:arial;-inkscape-font-specification:arial;fill:#ffffff;fill-opacity:1">elecom</tspan></text>
    <g
       id="g4257"
       transform="translate(-6.629126,-6.629126)">
      <path
         d="m 1334.0745,-535.36553 -0.54,-2.55 c -0.54,0.15 -1.65,0.42 -2.67,0.42 -1.98,0 -2.43,-0.99 -2.43,-2.1 l 0,-6.81 4.98,0 0,-2.88 -4.98,0 0,-4.53 -3.69,0 0,4.53 -2.4,0 0,2.88 2.4,0 0,6.9 c 0,2.55 0.63,4.95 5.22,4.95 1.38,0 3.09,-0.42 4.11,-0.81 z"
         style="font-style:normal;font-variant:normal;font-weight:bold;font-stretch:normal;font-size:30px;line-height:125%;font-family:Cantarell;-inkscape-font-specification:'Cantarell Bold';text-align:start;letter-spacing:0px;word-spacing:0px;writing-mode:lr-tb;text-anchor:start;fill:#000000;fill-opacity:1;stroke:none;stroke-width:1px;stroke-linecap:butt;stroke-linejoin:miter;stroke-opacity:1"
         id="path4239"
         inkscape:connector-curvature="0" />
      <path
         d="m 1343.6876,-548.55553 c 1.95,0 2.58,1.05 2.58,2.91 l 0,8.79 3.69,0 0,-8.31 c 0,-3.93 -1.11,-6.45 -5.31,-6.45 -1.41,0 -2.88,0.33 -4.41,0.96 l 0,-7.74 -3.69,0 0,21.54 3.69,0 0,-10.92 c 1.38,-0.54 2.52,-0.78 3.45,-0.78 z"
         style="font-style:normal;font-variant:normal;font-weight:bold;font-stretch:normal;font-size:medium;line-height:125%;font-family:Cantarell;-inkscape-font-specification:'Cantarell Bold';text-align:start;letter-spacing:0px;word-spacing:0px;writing-mode:lr-tb;text-anchor:start;fill:#000000;fill-opacity:1;stroke:none;stroke-width:1px;stroke-linecap:butt;stroke-linejoin:miter;stroke-opacity:1"
         id="path4241"
         inkscape:connector-curvature="0" />
      <path
         d="m 1361.6707,-556.73553 -3.45,-3.99 -2.31,1.95 3.72,3.87 2.04,-1.83 z m -2.46,3.12 c -4.11,0 -6.78,3.36 -6.78,7.53 0,4.68 2.88,7.53 7.74,7.53 1.8,0 3.51,-0.33 5.16,-0.9 l -0.63,-2.46 c -1.23,0.3 -2.58,0.45 -4.05,0.45 -2.76,0 -4.32,-1.14 -4.53,-3.39 l 9.93,0 0,-1.41 c 0,-4.71 -2.31,-7.35 -6.84,-7.35 z m -3,6.21 c 0.09,-2.04 1.23,-3.36 3.06,-3.36 2.04,0 3.18,1.05 3.18,3.36 l -6.24,0 z"
         style="font-style:normal;font-variant:normal;font-weight:bold;font-stretch:normal;font-size:medium;line-height:125%;font-family:Cantarell;-inkscape-font-specification:'Cantarell Bold';text-align:start;letter-spacing:0px;word-spacing:0px;writing-mode:lr-tb;text-anchor:start;fill:#000000;fill-opacity:1;stroke:none;stroke-width:1px;stroke-linecap:butt;stroke-linejoin:miter;stroke-opacity:1"
         id="path4243"
         inkscape:connector-curvature="0" />
      <path
         d="m 1379.6539,-554.32553 c -0.99,-0.54 -2.49,-1.29 -4.23,-1.29 -2.79,0 -6.9,1.77 -6.9,7.62 0,4.65 2.67,7.44 7.38,7.44 1.26,0 2.16,-0.24 3.15,-0.75 l 0,8.22 3.6,0 0,-22.2 -2.52,0 -0.48,0.96 z m -3.24,1.62 c 0.78,0 1.65,0.21 2.61,0.57 l 0,8.1 c -0.66,0.39 -1.47,0.72 -2.49,0.72 -2.4,0 -4.32,-1.29 -4.32,-4.68 0,-3.75 1.8,-4.71 4.2,-4.71 z"
         style="font-style:normal;font-variant:normal;font-weight:bold;font-stretch:normal;font-size:medium;line-height:125%;font-family:Cantarell;-inkscape-font-specification:'Cantarell Bold';text-align:start;letter-spacing:0px;word-spacing:0px;writing-mode:lr-tb;text-anchor:start;fill:#000000;fill-opacity:1;stroke:none;stroke-width:1px;stroke-linecap:butt;stroke-linejoin:miter;stroke-opacity:1"
         id="path4245"
         inkscape:connector-curvature="0" />
      <path
         d="m 1390.437,-542.55553 c 2.07,0 3.06,-0.51 4.65,-1.35 l 0.57,1.05 2.52,0 0,-14.43 -3.69,0 0,10.74 c -0.96,0.57 -1.95,0.87 -3,0.87 -1.92,0 -2.67,-1.26 -2.67,-3 l 0,-8.61 -3.69,0 0,8.1 c 0,3.99 1.08,6.63 5.31,6.63 z"
         style="font-style:normal;font-variant:normal;font-weight:bold;font-stretch:normal;font-size:medium;line-height:125%;font-family:Cantarell;-inkscape-font-specification:'Cantarell Bold';text-align:start;letter-spacing:0px;word-spacing:0px;writing-mode:lr-tb;text-anchor:start;fill:#000000;fill-opacity:1;stroke:none;stroke-width:1px;stroke-linecap:butt;stroke-linejoin:miter;stroke-opacity:1"
         id="path4247"
         inkscape:connector-curvature="0" />
      <path
         d="m 1407.4301,-559.61553 c -4.11,0 -6.78,3.36 -6.78,7.53 0,4.68 2.88,7.53 7.74,7.53 1.8,0 3.51,-0.33 5.16,-0.9 l -0.63,-2.46 c -1.23,0.3 -2.58,0.45 -4.05,0.45 -2.76,0 -4.32,-1.14 -4.53,-3.39 l 9.93,0 0,-1.41 c 0,-4.71 -2.31,-7.35 -6.84,-7.35 z m -3,6.21 c 0.09,-2.04 1.23,-3.36 3.06,-3.36 2.04,0 3.18,1.05 3.18,3.36 l -6.24,0 z"
         style="font-style:normal;font-variant:normal;font-weight:bold;font-stretch:normal;font-size:medium;line-height:125%;font-family:Cantarell;-inkscape-font-specification:'Cantarell Bold';text-align:start;letter-spacing:0px;word-spacing:0px;writing-mode:lr-tb;text-anchor:start;fill:#000000;fill-opacity:1;stroke:none;stroke-width:1px;stroke-linecap:butt;stroke-linejoin:miter;stroke-opacity:1"
         id="path4249"
         inkscape:connector-curvature="0" />
    </g>
    <text
       xml:space="preserve"
       style="font-style:normal;font-variant:normal;font-weight:normal;font-stretch:normal;font-size:16.76312256px;line-height:125%;font-family:Archer;-inkscape-font-specification:Archer;letter-spacing:0px;word-spacing:0px;fill:#000000;fill-opacity:1;stroke:none;stroke-width:1px;stroke-linecap:butt;stroke-linejoin:miter;stroke-opacity:1"
       x="445.31656"
       y="1444.0303"
       id="text4265"
       sodipodi:linespacing="125%"
       transform="matrix(0,-1,1,0,0,0)"><tspan
         sodipodi:role="line"
         id="tspan4267"
         x="445.31656"
         y="1444.0303"
         style="font-style:normal;font-variant:normal;font-weight:normal;font-stretch:normal;font-family:Arial;-inkscape-font-specification:Arial">Bordeaux INP - ENSEIRB-MATMECA</tspan></text>
  </g>
</svg>
